<svg width="19" height="24" viewBox="0 0 19 24" fill="none" xmlns="http://www.w3.org/2000/svg">
<path d="M17.6429 18.8538H17V9.74665C17 5.96719 14.2063 2.84397 10.5714 2.32433V1.28237C10.5714 0.690402 10.092 0.210938 9.5 0.210938C8.90804 0.210938 8.42857 0.690402 8.42857 1.28237V2.32433C4.79375 2.84397 2 5.96719 2 9.74665V18.8538H1.35714C0.883036 18.8538 0.5 19.2368 0.5 19.7109V20.5681C0.5 20.6859 0.596429 20.7824 0.714286 20.7824H6.5C6.5 22.4377 7.84464 23.7824 9.5 23.7824C11.1554 23.7824 12.5 22.4377 12.5 20.7824H18.2857C18.4036 20.7824 18.5 20.6859 18.5 20.5681V19.7109C18.5 19.2368 18.117 18.8538 17.6429 18.8538ZM9.5 22.0681C8.79018 22.0681 8.21429 21.4922 8.21429 20.7824H10.7857C10.7857 21.4922 10.2098 22.0681 9.5 22.0681ZM3.92857 18.8538V9.74665C3.92857 8.25737 4.50714 6.85915 5.55982 5.80647C6.6125 4.75379 8.01072 4.17522 9.5 4.17522C10.9893 4.17522 12.3875 4.75379 13.4402 5.80647C14.4929 6.85915 15.0714 8.25737 15.0714 9.74665V18.8538H3.92857Z" fill="black" fill-opacity="0.85"/>
</svg>
