<svg width="24" height="24" viewBox="0 0 24 24" fill="none" xmlns="http://www.w3.org/2000/svg">
<path d="M20.667 5.2168V11C20.667 16.3814 16.9579 21.4001 12 22.6543C7.04214 21.4001 3.33301 16.3814 3.33301 11V5.2168L12 1.36426L20.667 5.2168ZM12 7.33301C12.6159 7.33301 13.2399 7.57728 13.708 7.97852C14.1749 8.37876 14.4668 8.91648 14.4668 9.5V11.333H14.7998C14.99 11.333 15.207 11.4316 15.3828 11.6172C15.5565 11.8006 15.6669 12.0455 15.667 12.2998V15.7998C15.667 15.99 15.5684 16.207 15.3828 16.3828C15.1994 16.5565 14.9545 16.6669 14.7002 16.667H9.2002C9.00996 16.667 8.79298 16.5684 8.61719 16.3828C8.44351 16.1994 8.33306 15.9545 8.33301 15.7002V12.2002C8.33301 12.0086 8.43213 11.7886 8.61035 11.6104C8.78857 11.4321 9.00861 11.333 9.2002 11.333H9.5332V9.5C9.5332 8.91648 9.82513 8.37876 10.292 7.97852C10.7601 7.57728 11.3841 7.33301 12 7.33301ZM12 7.86621C11.0816 7.86621 10.167 8.45648 10.167 9.5V11.333H13.833V9.5C13.833 8.45648 12.9184 7.86621 12 7.86621ZM19.333 6.08398L19.1357 5.99512L12.1357 2.87598L12 2.81543L11.8643 2.87598L4.86426 5.99512L4.66699 6.08398V11.2197C4.66699 13.4603 5.50788 15.7224 6.82324 17.5498C8.13739 19.3755 9.94687 20.7977 11.9141 21.3223L12 21.3447L12.0859 21.3223C14.0531 20.7977 15.8626 19.3755 17.1768 17.5498C18.4921 15.7224 19.333 13.4603 19.333 11.2197V6.08398Z" fill="#395486" stroke="#395486" stroke-width="0.666667"/>
</svg>
