<svg width="24" height="25" viewBox="0 0 24 25" fill="none" xmlns="http://www.w3.org/2000/svg">
<path fill-rule="evenodd" clip-rule="evenodd" d="M7.659 2.288C7.72917 2.19827 7.81886 2.12569 7.92126 2.07579C8.02366 2.02589 8.13609 1.99997 8.25 2H15.75C15.8639 2.00003 15.9763 2.02602 16.0787 2.07598C16.1811 2.12594 16.2708 2.19857 16.3409 2.28836C16.411 2.37814 16.4598 2.48272 16.4834 2.59416C16.5071 2.7056 16.5051 2.82096 16.4775 2.9315L16.335 3.5H18.75C18.9489 3.5 19.1397 3.57902 19.2803 3.71967C19.421 3.86032 19.5 4.05109 19.5 4.25V22.25C19.5 22.4489 19.421 22.6397 19.2803 22.7803C19.1397 22.921 18.9489 23 18.75 23H5.25C5.05109 23 4.86032 22.921 4.71967 22.7803C4.57902 22.6397 4.5 22.4489 4.5 22.25V4.25C4.5 4.05109 4.57902 3.86032 4.71967 3.71967C4.86032 3.57902 5.05109 3.5 5.25 3.5H7.665L7.5225 2.9315C7.49465 2.82103 7.49233 2.70567 7.51572 2.59417C7.53912 2.48267 7.5891 2.37796 7.659 2.288ZM14.79 3.5H9.21L9.585 5H14.415L14.79 3.5ZM16.5 18.5H7.5V17H16.5V18.5ZM9 15.5L11.25 14.75L15.75 10.25L14.25 8.75L9.75 13.25L9 15.5Z" fill="#A8A8A8"/>
</svg>
