<svg width="25" height="24" viewBox="0 0 25 24" fill="none" xmlns="http://www.w3.org/2000/svg">
<path fill-rule="evenodd" clip-rule="evenodd" d="M4.54452 3.0498C4.28078 3.0498 4.02785 3.15457 3.84136 3.34107C3.65486 3.52756 3.55009 3.78049 3.55009 4.04423V10.0108C3.55009 10.2745 3.65486 10.5275 3.84136 10.714C4.02785 10.9005 4.28078 11.0052 4.54452 11.0052H10.5111C10.7748 11.0052 11.0278 10.9005 11.2143 10.714C11.4008 10.5275 11.5055 10.2745 11.5055 10.0108V4.04423C11.5055 3.78049 11.4008 3.52756 11.2143 3.34107C11.0278 3.15457 10.7748 3.0498 10.5111 3.0498H4.54452ZM5.53895 9.01638V5.03866H9.51667V9.01638H5.53895ZM14.4888 3.0498C14.2251 3.0498 13.9721 3.15457 13.7856 3.34107C13.5992 3.52756 13.4944 3.78049 13.4944 4.04423V10.0108C13.4944 10.2745 13.5992 10.5275 13.7856 10.714C13.9721 10.9005 14.2251 11.0052 14.4888 11.0052H20.4554C20.7191 11.0052 20.9721 10.9005 21.1586 10.714C21.345 10.5275 21.4498 10.2745 21.4498 10.0108V4.04423C21.4498 3.78049 21.345 3.52756 21.1586 3.34107C20.9721 3.15457 20.7191 3.0498 20.4554 3.0498H14.4888ZM4.54452 12.9941C4.28078 12.9941 4.02785 13.0989 3.84136 13.2854C3.65486 13.4718 3.55009 13.7248 3.55009 13.9885V19.9551C3.55009 20.2188 3.65486 20.4718 3.84136 20.6583C4.02785 20.8448 4.28078 20.9495 4.54452 20.9495H10.5111C10.7748 20.9495 11.0278 20.8448 11.2143 20.6583C11.4008 20.4718 11.5055 20.2188 11.5055 19.9551V13.9885C11.5055 13.7248 11.4008 13.4718 11.2143 13.2854C11.0278 13.0989 10.7748 12.9941 10.5111 12.9941H4.54452ZM14.4888 12.9941C14.2251 12.9941 13.9721 13.0989 13.7856 13.2854C13.5992 13.4718 13.4944 13.7248 13.4944 13.9885V14.983C13.4944 15.2467 13.5992 15.4996 13.7856 15.6861C13.9721 15.8726 14.2251 15.9774 14.4888 15.9774H15.4832C15.747 15.9774 15.9999 15.8726 16.1864 15.6861C16.3729 15.4996 16.4777 15.2467 16.4777 14.983V13.9885C16.4777 13.7248 16.3729 13.4718 16.1864 13.2854C15.9999 13.0989 15.747 12.9941 15.4832 12.9941H14.4888ZM19.461 12.9941C19.1972 12.9942 18.9443 13.099 18.7579 13.2855L16.769 15.2743C16.5879 15.4619 16.4877 15.7131 16.4899 15.9738C16.4922 16.2345 16.5968 16.484 16.7812 16.6683C16.9655 16.8527 17.2149 16.9573 17.4757 16.9596C17.7364 16.9618 17.9876 16.8616 18.1752 16.6804L19.8727 14.983H20.4554C20.7191 14.983 20.9721 14.8782 21.1586 14.6917C21.345 14.5052 21.4498 14.2523 21.4498 13.9885C21.4498 13.7248 21.345 13.4718 21.1586 13.2854C20.9721 13.0989 20.7191 12.9941 20.4554 12.9941H19.461ZM14.4888 16.9718C14.2251 16.9718 13.9721 17.0766 13.7856 17.2631C13.5992 17.4496 13.4944 17.7025 13.4944 17.9662V19.9551C13.4944 20.2188 13.5992 20.4718 13.7856 20.6583C13.9721 20.8448 14.2251 20.9495 14.4888 20.9495C14.7526 20.9495 15.0055 20.8448 15.192 20.6583C15.3785 20.4718 15.4832 20.2188 15.4832 19.9551V18.9607H16.4777C16.7414 18.9607 16.9943 18.8559 17.1808 18.6694C17.3673 18.4829 17.4721 18.23 17.4721 17.9662C17.4721 17.7025 17.3673 17.4496 17.1808 17.2631C16.9943 17.0766 16.7414 16.9718 16.4777 16.9718H14.4888ZM21.4498 17.9662C21.4498 17.7025 21.345 17.4496 21.1586 17.2631C20.9721 17.0766 20.7191 16.9718 20.4554 16.9718C20.1917 16.9718 19.9387 17.0766 19.7522 17.2631C19.5657 17.4496 19.461 17.7025 19.461 17.9662V18.9607H18.4665C18.2028 18.9607 17.9499 19.0654 17.7634 19.2519C17.5769 19.4384 17.4721 19.6914 17.4721 19.9551C17.4721 20.2188 17.5769 20.4718 17.7634 20.6583C17.9499 20.8448 18.2028 20.9495 18.4665 20.9495H20.4554C20.7191 20.9495 20.9721 20.8448 21.1586 20.6583C21.345 20.4718 21.4498 20.2188 21.4498 19.9551V17.9662ZM16.4777 7.02752C16.4777 6.76378 16.5824 6.51085 16.7689 6.32435C16.9554 6.13786 17.2084 6.03309 17.4721 6.03309C17.7358 6.03309 17.9898 6.13786 18.1763 6.32435C18.3628 6.51085 18.4675 6.76378 18.4675 7.02752C18.4675 7.29126 18.3628 7.5442 18.1763 7.73069C17.9898 7.91718 17.7368 8.02195 17.4731 8.02195C17.2094 8.02195 16.9554 7.91718 16.7689 7.73069C16.5824 7.5442 16.4777 7.29126 16.4777 7.02752ZM7.52781 15.9774C7.26407 15.9774 7.01114 16.0822 6.82464 16.2686C6.63815 16.4551 6.53338 16.7081 6.53338 16.9718C6.53338 17.2356 6.63815 17.4885 6.82464 17.675C7.01114 17.8615 7.26407 17.9662 7.52781 17.9662C7.79155 17.9662 8.04548 17.8615 8.23197 17.675C8.41846 17.4885 8.52323 17.2356 8.52323 16.9718C8.52323 16.7081 8.41846 16.4551 8.23197 16.2686C8.04548 16.0822 7.79155 15.9774 7.52781 15.9774Z" fill="#F4F4F4"/>
</svg>
