<svg width="17" height="21" viewBox="0 0 17 21" fill="none" xmlns="http://www.w3.org/2000/svg">
<path d="M8.49988 0.5C8.76507 0.5 9.01938 0.60547 9.20691 0.792969C9.39445 0.980505 9.49988 1.23478 9.49988 1.5V2.25H10.0565C11.1286 2.24995 12.1608 2.65858 12.9423 3.39258C13.7237 4.12663 14.1957 5.13113 14.2626 6.20117L14.4843 9.73438C14.5697 11.0814 15.0217 12.3798 15.7919 13.4883C15.9509 13.7172 16.0483 13.9832 16.0741 14.2607C16.0999 14.5384 16.0536 14.8188 15.9393 15.0732C15.8251 15.3276 15.6463 15.5477 15.4218 15.7129C15.1972 15.8781 14.9339 15.9823 14.6571 16.0156L11.2499 16.4248V17.5C11.2499 18.2293 10.9599 18.9286 10.4442 19.4443C9.92849 19.96 9.22919 20.25 8.49988 20.25C7.77058 20.25 7.07124 19.96 6.55554 19.4443C6.03986 18.9286 5.74988 18.2293 5.74988 17.5V16.4248L2.34265 16.0166C2.06573 15.9834 1.80172 15.8791 1.57703 15.7139C1.35239 15.5486 1.17462 15.3277 1.06042 15.0732C0.946268 14.8188 0.899826 14.5394 0.925659 14.2617C0.951565 13.984 1.04862 13.7173 1.20789 13.4883C1.97806 12.3798 2.43099 11.0815 2.51648 9.73438L2.73718 6.2002C2.80433 5.13051 3.27633 4.12639 4.0575 3.39258C4.8389 2.65874 5.87127 2.24993 6.94324 2.25H7.49988V1.5C7.49988 1.23481 7.60535 0.980499 7.79285 0.792969C7.98035 0.605461 8.23471 0.500032 8.49988 0.5ZM7.24988 17.5C7.24988 17.8315 7.38171 18.1494 7.61609 18.3838C7.85048 18.6182 8.1684 18.75 8.49988 18.75C8.83137 18.75 9.14925 18.6182 9.38367 18.3838C9.61809 18.1494 9.74988 17.8315 9.74988 17.5V16.75H7.24988V17.5Z" fill="#395486"/>
</svg>
