<svg width="24" height="25" viewBox="0 0 24 25" fill="none" xmlns="http://www.w3.org/2000/svg">
<path d="M8 5.5H6C5.46957 5.5 4.96086 5.71071 4.58579 6.08579C4.21071 6.46086 4 6.96957 4 7.5V19.5C4 20.0304 4.21071 20.5391 4.58579 20.9142C4.96086 21.2893 5.46957 21.5 6 21.5H11.697M18 12.5V7.5C18 6.96957 17.7893 6.46086 17.4142 6.08579C17.0391 5.71071 16.5304 5.5 16 5.5H14" stroke="#A8A8A8" stroke-width="2" stroke-linecap="round" stroke-linejoin="round"/>
<path d="M8 11.5H12M8 15.5H11M18.5 20L21 22.5M8 5.5C8 4.96957 8.21071 4.46086 8.58579 4.08579C8.96086 3.71071 9.46957 3.5 10 3.5H12C12.5304 3.5 13.0391 3.71071 13.4142 4.08579C13.7893 4.46086 14 4.96957 14 5.5C14 6.03043 13.7893 6.53914 13.4142 6.91421C13.0391 7.28929 12.5304 7.5 12 7.5H10C9.46957 7.5 8.96086 7.28929 8.58579 6.91421C8.21071 6.53914 8 6.03043 8 5.5ZM14 18C14 18.663 14.2634 19.2989 14.7322 19.7678C15.2011 20.2366 15.837 20.5 16.5 20.5C17.163 20.5 17.7989 20.2366 18.2678 19.7678C18.7366 19.2989 19 18.663 19 18C19 17.337 18.7366 16.7011 18.2678 16.2322C17.7989 15.7634 17.163 15.5 16.5 15.5C15.837 15.5 15.2011 15.7634 14.7322 16.2322C14.2634 16.7011 14 17.337 14 18Z" stroke="#A8A8A8" stroke-width="2" stroke-linecap="round" stroke-linejoin="round"/>
</svg>
