<svg width="23" height="24" viewBox="0 0 23 24" fill="none" xmlns="http://www.w3.org/2000/svg">
<path d="M10.8294 2.5093C11.2915 2.03538 11.8431 1.65793 12.4523 1.39886C13.0614 1.13979 13.7159 1.00425 14.3778 1.0001C15.0398 0.995951 15.6959 1.12328 16.3083 1.3747C16.9206 1.62612 17.4769 1.99662 17.9449 2.46472C18.413 2.93281 18.7834 3.48918 19.0347 4.10155C19.2861 4.71393 19.4133 5.37011 19.4091 6.03203C19.4048 6.69396 19.2692 7.34846 19.01 7.95756C18.7509 8.56666 18.3733 9.11824 17.8994 9.5803L10.1224 17.3583C9.84465 17.6406 9.51379 17.8652 9.14887 18.019C8.78394 18.1728 8.39217 18.2529 7.99615 18.2545C7.60014 18.2562 7.20771 18.1794 6.84151 18.0287C6.47531 17.8779 6.14258 17.6561 5.86251 17.3761C5.58245 17.0961 5.3606 16.7635 5.20975 16.3973C5.0589 16.0311 4.98204 15.6387 4.98361 15.2427C4.98517 14.8467 5.06513 14.4549 5.21887 14.0899C5.37261 13.725 5.59709 13.3941 5.87936 13.1163L13.6574 5.3383L15.0714 6.7523L7.29336 14.5303C7.19785 14.6225 7.12167 14.7329 7.06926 14.8549C7.01685 14.9769 6.98926 15.1081 6.98811 15.2409C6.98695 15.3737 7.01225 15.5054 7.06254 15.6283C7.11282 15.7512 7.18707 15.8628 7.28096 15.9567C7.37485 16.0506 7.48651 16.1248 7.6094 16.1751C7.7323 16.2254 7.86398 16.2507 7.99676 16.2496C8.12954 16.2484 8.26076 16.2208 8.38276 16.1684C8.50477 16.116 8.61511 16.0398 8.70736 15.9443L16.4864 8.1663C16.765 7.8877 16.986 7.55696 17.1367 7.19295C17.2875 6.82894 17.3651 6.4388 17.3651 6.0448C17.3651 5.6508 17.2875 5.26066 17.1367 4.89665C16.986 4.53265 16.765 4.2019 16.4864 3.9233C16.2078 3.6447 15.877 3.4237 15.513 3.27293C15.149 3.12215 14.7589 3.04455 14.3649 3.04455C13.9709 3.04455 13.5807 3.12215 13.2167 3.27293C12.8527 3.4237 12.522 3.6447 12.2434 3.9233L4.46536 11.7023C3.55457 12.6453 3.05059 13.9083 3.06199 15.2193C3.07338 16.5303 3.59922 17.7844 4.52626 18.7114C5.4533 19.6384 6.70737 20.1643 8.01835 20.1757C9.32933 20.1871 10.5923 19.6831 11.5354 18.7723L20.0214 10.2873L21.4354 11.7023L12.9504 20.1873C11.6375 21.5001 9.85697 22.2377 8.00036 22.2377C6.14375 22.2377 4.36318 21.5001 3.05036 20.1873C1.73754 18.8745 1 17.0939 1 15.2373C1 13.3807 1.73754 11.6001 3.05036 10.2873L10.8294 2.5093Z" fill="#395486"/>
</svg>
