<svg width="21" height="22" viewBox="0 0 21 22" fill="none" xmlns="http://www.w3.org/2000/svg">
<path d="M9.82936 1.5093C10.2915 1.03538 10.8431 0.65793 11.4523 0.398858C12.0614 0.139787 12.7159 0.00424563 13.3778 9.81544e-05C14.0398 -0.00404932 14.6959 0.123279 15.3083 0.374698C15.9206 0.626116 16.4769 0.99662 16.9449 1.46472C17.413 1.93281 17.7834 2.48918 18.0347 3.10155C18.2861 3.71393 18.4133 4.37011 18.4091 5.03203C18.4048 5.69396 18.2692 6.34846 18.01 6.95756C17.7509 7.56666 17.3733 8.11824 16.8994 8.5803L9.12236 16.3583C8.84465 16.6406 8.51379 16.8652 8.14887 17.019C7.78394 17.1728 7.39217 17.2529 6.99615 17.2545C6.60014 17.2562 6.20771 17.1794 5.84151 17.0287C5.47531 16.8779 5.14258 16.6561 4.86251 16.3761C4.58245 16.0961 4.3606 15.7635 4.20975 15.3973C4.0589 15.0311 3.98204 14.6387 3.98361 14.2427C3.98517 13.8467 4.06513 13.4549 4.21887 13.0899C4.37261 12.725 4.59709 12.3941 4.87936 12.1163L12.6574 4.3383L14.0714 5.7523L6.29336 13.5303C6.19785 13.6225 6.12167 13.7329 6.06926 13.8549C6.01685 13.9769 5.98926 14.1081 5.98811 14.2409C5.98695 14.3737 6.01225 14.5054 6.06254 14.6283C6.11282 14.7512 6.18707 14.8628 6.28096 14.9567C6.37485 15.0506 6.48651 15.1248 6.6094 15.1751C6.7323 15.2254 6.86398 15.2507 6.99676 15.2496C7.12954 15.2484 7.26076 15.2208 7.38276 15.1684C7.50477 15.116 7.61511 15.0398 7.70736 14.9443L15.4864 7.1663C15.765 6.8877 15.986 6.55696 16.1367 6.19295C16.2875 5.82894 16.3651 5.4388 16.3651 5.0448C16.3651 4.6508 16.2875 4.26066 16.1367 3.89665C15.986 3.53265 15.765 3.2019 15.4864 2.9233C15.2078 2.6447 14.877 2.4237 14.513 2.27293C14.149 2.12215 13.7589 2.04455 13.3649 2.04455C12.9709 2.04455 12.5807 2.12215 12.2167 2.27293C11.8527 2.4237 11.522 2.6447 11.2434 2.9233L3.46536 10.7023C2.55457 11.6453 2.05059 12.9083 2.06199 14.2193C2.07338 15.5303 2.59922 16.7844 3.52626 17.7114C4.4533 18.6384 5.70737 19.1643 7.01835 19.1757C8.32933 19.1871 9.59235 18.6831 10.5354 17.7723L19.0214 9.2873L20.4354 10.7023L11.9504 19.1873C10.6375 20.5001 8.85697 21.2377 7.00036 21.2377C5.14375 21.2377 3.36318 20.5001 2.05036 19.1873C0.737535 17.8745 1.38328e-08 16.0939 0 14.2373C-1.38328e-08 12.3807 0.737535 10.6001 2.05036 9.2873L9.82936 1.5093Z" fill="#395486"/>
</svg>
